<?xml version="1.0" encoding="UTF-8"?>
<svg width="240px" height="45px" viewBox="0 0 240 45" version="1.1" xmlns="http://www.w3.org/2000/svg" xmlns:xlink="http://www.w3.org/1999/xlink">
    <!-- Generator: Sketch 48.2 (47327) - http://www.bohemiancoding.com/sketch -->
    <title>Logo</title>
    <desc>Created with Sketch.</desc>
    <defs></defs>
    <g id="Page-1" stroke="none" stroke-width="1" fill="none" fill-rule="evenodd">
        <g id="Logo" transform="translate(0.000000, -2.000000)" fill="#1B1F27">
            <g id="transport" transform="translate(0.000000, 2.000000)" fill-rule="nonzero">
                <path d="M17.2340351,23.2048246 L17.2340351,36.6785088 C17.2340351,37.0916667 17.569386,37.4270175 17.9825439,37.4270175 C18.3957018,37.4270175 18.7310526,37.0916667 18.7310526,36.6785088 L18.7310526,23.2048246 C18.7310526,22.7916667 18.3957018,22.4563158 17.9825439,22.4563158 C17.569386,22.4563158 17.2340351,22.7916667 17.2340351,23.2048246 Z" id="Shape"></path>
                <path d="M20.9766667,13.4738596 C20.9766667,11.8225439 19.6337719,10.4797368 17.9825439,10.4797368 C16.3313158,10.4797368 14.9884211,11.8226316 14.9884211,13.4738596 C14.9884211,15.1251754 16.3313158,16.4679825 17.9825439,16.4679825 C19.6337719,16.4679825 20.9766667,15.1251754 20.9766667,13.4738596 Z M17.9825439,14.9709649 C17.1569298,14.9709649 16.4854386,14.2995614 16.4854386,13.4738596 C16.4854386,12.6482456 17.1568421,11.9767544 17.9825439,11.9767544 C18.8081579,11.9767544 19.4796491,12.6481579 19.4796491,13.4738596 C19.4796491,14.2994737 18.8081579,14.9709649 17.9825439,14.9709649 Z" id="Shape"></path>
                <path d="M11.2457018,34.4328947 C11.6588596,34.4328947 11.9942105,34.0975439 11.9942105,33.684386 L11.9942105,12.7253509 C11.9942105,12.6812281 12.0346491,8.72666667 14.5482456,5.39868421 C15.2092105,5.64570175 16.4053509,5.98850877 17.9825439,5.98850877 C19.5642105,5.98850877 20.7566667,5.64421053 21.4138596,5.39640351 C23.9184211,8.71614035 23.9708772,12.6819298 23.9708772,12.7253509 L23.9708772,33.684386 C23.9708772,34.0975439 24.3062281,34.4328947 24.719386,34.4328947 C25.1325439,34.4328947 25.4678947,34.0975439 25.4678947,33.684386 L25.4678947,12.7253509 C25.4678947,12.4985088 25.4229825,7.13 21.5058772,3.21368421 L18.5117544,0.219473684 C18.2190351,-0.0731578947 17.7459649,-0.0731578947 17.4533333,0.219473684 L14.4592105,3.21359649 C10.5421053,7.12991228 10.497193,12.4984211 10.497193,12.7252632 L10.497193,33.6842982 C10.497193,34.0976316 10.8325439,34.4328947 11.2457018,34.4328947 Z M17.9825439,1.80719298 L20.347193,4.17184211 C19.7760526,4.33350877 18.9684211,4.49149123 17.9825439,4.49149123 C16.9997368,4.49149123 16.1905263,4.33429825 15.617193,4.17263158 L17.9825439,1.80719298 Z" id="Shape"></path>
                <path d="M2.26324561,38.9241228 C1.85008772,38.9241228 1.51473684,39.2594737 1.51473684,39.6726316 L1.51473684,41.1697368 C1.51473684,41.5828947 1.85008772,41.9182456 2.26324561,41.9182456 C2.67640351,41.9182456 3.01175439,41.5828947 3.01175439,41.1697368 L3.01175439,39.6726316 C3.01175439,39.2594737 2.67640351,38.9241228 2.26324561,38.9241228 Z" id="Shape"></path>
                <path d="M5.25736842,38.9241228 C4.84421053,38.9241228 4.50885965,39.2594737 4.50885965,39.6726316 L4.50885965,44.1638596 C4.50885965,44.5770175 4.84421053,44.9123684 5.25736842,44.9123684 C5.67052632,44.9123684 6.00587719,44.5770175 6.00587719,44.1638596 L6.00587719,39.6726316 C6.00596491,39.2594737 5.67061404,38.9241228 5.25736842,38.9241228 Z" id="Shape"></path>
                <path d="M33.7018421,38.9241228 C33.2886842,38.9241228 32.9533333,39.2594737 32.9533333,39.6726316 L32.9533333,41.1697368 C32.9533333,41.5828947 33.2886842,41.9182456 33.7018421,41.9182456 C34.115,41.9182456 34.4503509,41.5828947 34.4503509,41.1697368 L34.4503509,39.6726316 C34.4503509,39.2594737 34.115,38.9241228 33.7018421,38.9241228 Z" id="Shape"></path>
                <path d="M31.4000877,27.9521053 L29.9591228,27.2335088 L29.9591228,21.707807 C29.9591228,20.4697368 28.9515789,19.462193 27.7135088,19.462193 C27.3003509,19.462193 26.965,19.7975439 26.965,20.2107018 C26.965,20.6238596 27.3003509,20.9592105 27.7135088,20.9592105 C28.1259649,20.9592105 28.4620175,21.2952632 28.4620175,21.7077193 L28.4620175,27.6960526 C28.4620175,27.9797368 28.622193,28.2387719 28.8759649,28.3659649 L30.7383333,29.2949123 C31.9427193,29.8885088 34.4503509,31.1235965 34.4503509,32.1872807 L34.4503509,35.93 L26.2164035,35.93 C26.0195614,35.93 25.8286842,36.0092982 25.6886842,36.147807 C25.6602632,36.1755263 22.8240351,38.9241228 17.9824561,38.9241228 C13.1408772,38.9241228 10.3047368,36.1755263 10.2777193,36.1492982 C10.1377193,36.0085965 9.94684211,35.93 9.74850877,35.93 L1.51473684,35.93 L1.51473684,32.1872807 C1.51473684,31.1235965 4.02236842,29.8885088 5.22675439,29.2949123 L7.08912281,28.3659649 C7.34289474,28.2386842 7.50307018,27.9797368 7.50307018,27.6960526 L7.50307018,21.7077193 C7.50307018,21.2952632 7.83912281,20.9592105 8.25157895,20.9592105 C8.66473684,20.9592105 9.00008772,20.6238596 9.00008772,20.2107018 C9.00008772,19.7975439 8.66473684,19.462193 8.25157895,19.462193 C7.01350877,19.462193 6.00596491,20.4697368 6.00596491,21.707807 L6.00596491,27.2335088 L4.565,27.9521053 C2.75429825,28.844386 0.0176315789,30.1924561 0.0176315789,32.1873684 L0.0176315789,36.6785965 C0.0176315789,37.0917544 0.352982456,37.4271053 0.766140351,37.4271053 L9.45815789,37.4271053 C10.2964912,38.1569298 13.2794737,40.4212281 17.9825439,40.4212281 C22.685614,40.4212281 25.6685088,38.1569298 26.5069298,37.4271053 L35.1989474,37.4271053 C35.6121053,37.4271053 35.9474561,37.0917544 35.9474561,36.6785965 L35.9474561,32.1873684 C35.9474561,30.1924561 33.2107895,28.844386 31.4000877,27.9521053 Z" id="Shape"></path>
                <path d="M8.25157895,38.9241228 C7.83842105,38.9241228 7.50307018,39.2594737 7.50307018,39.6726316 L7.50307018,42.6667544 C7.50307018,43.0799123 7.83842105,43.4152632 8.25157895,43.4152632 C8.66473684,43.4152632 9.00008772,43.0799123 9.00008772,42.6667544 L9.00008772,39.6726316 C9.00008772,39.2594737 8.66473684,38.9241228 8.25157895,38.9241228 Z" id="Shape"></path>
                <path d="M30.7077193,38.9241228 C30.2945614,38.9241228 29.9592105,39.2594737 29.9592105,39.6726316 L29.9592105,44.1638596 C29.9592105,44.5770175 30.2945614,44.9123684 30.7077193,44.9123684 C31.1208772,44.9123684 31.4562281,44.5770175 31.4562281,44.1638596 L31.4562281,39.6726316 C31.4562281,39.2594737 31.1208772,38.9241228 30.7077193,38.9241228 Z" id="Shape"></path>
                <path d="M27.7135088,38.9241228 C27.3003509,38.9241228 26.965,39.2594737 26.965,39.6726316 L26.965,42.6667544 C26.965,43.0799123 27.3003509,43.4152632 27.7135088,43.4152632 C28.1266667,43.4152632 28.4620175,43.0799123 28.4620175,42.6667544 L28.4620175,39.6726316 C28.4621053,39.2594737 28.1267544,38.9241228 27.7135088,38.9241228 Z" id="Shape"></path>
            </g>
            <text id="DiscoveryX" font-family="AvenirNext-Regular, Avenir Next" font-size="36" font-weight="normal">
                <tspan x="56" y="36">Discovery</tspan>
                <tspan x="216.92" y="36" font-family="AvenirNext-Medium, Avenir Next" font-weight="400">X</tspan>
            </text>
        </g>
    </g>
</svg>